<mxfile host="Electron" modified="2024-09-23T20:23:30.204Z" agent="Mozilla/5.0 (Windows NT 10.0; Win64; x64) AppleWebKit/537.36 (KHTML, like Gecko) draw.io/24.2.5 Chrome/120.0.6099.109 Electron/28.1.0 Safari/537.36" etag="4Yzrg7HEz_ckQFQMJTo2" version="24.2.5" type="device">
  <diagram name="Page-1" id="c4acf3e9-155e-7222-9cf6-157b1a14988f">
    <mxGraphModel dx="1302" dy="774" grid="1" gridSize="10" guides="1" tooltips="1" connect="1" arrows="1" fold="1" page="1" pageScale="1" pageWidth="850" pageHeight="1100" background="none" math="0" shadow="0">
      <root>
        <mxCell id="0" />
        <mxCell id="1" parent="0" />
        <mxCell id="Xy19DxBYmVt9RFk1YGQX-3" value="Inhalt der pipelineSettings.yaml,&lt;div&gt;ausführlich&lt;/div&gt;" style="shape=note;size=20;whiteSpace=wrap;html=1;" parent="1" vertex="1">
          <mxGeometry x="80" y="600" width="240" height="40" as="geometry" />
        </mxCell>
        <mxCell id="Xy19DxBYmVt9RFk1YGQX-6" value="VariableDefs:[Zeilenumbruch]" style="ellipse;whiteSpace=wrap;html=1;" parent="1" vertex="1">
          <mxGeometry x="120" y="680" width="200" height="40" as="geometry" />
        </mxCell>
        <mxCell id="Xy19DxBYmVt9RFk1YGQX-7" value="Zeilenumbrücke sind für YAML&lt;div&gt;wichtig! Also nicht vergessen!&lt;/div&gt;" style="shape=note;size=20;whiteSpace=wrap;html=1;" parent="1" vertex="1">
          <mxGeometry x="360" y="600" width="210" height="40" as="geometry" />
        </mxCell>
        <mxCell id="wnIjS79g1sQR4ne2AyyQ-9" style="edgeStyle=orthogonalEdgeStyle;rounded=0;orthogonalLoop=1;jettySize=auto;html=1;" parent="1" source="Xy19DxBYmVt9RFk1YGQX-9" target="wnIjS79g1sQR4ne2AyyQ-7" edge="1">
          <mxGeometry relative="1" as="geometry" />
        </mxCell>
        <mxCell id="Xy19DxBYmVt9RFk1YGQX-9" value="Variablentyp" style="rounded=0;whiteSpace=wrap;html=1;" parent="1" vertex="1">
          <mxGeometry x="200" y="840" width="100" height="40" as="geometry" />
        </mxCell>
        <mxCell id="2dUyCxh0dzYOMJSv52OM-4" style="edgeStyle=orthogonalEdgeStyle;rounded=0;orthogonalLoop=1;jettySize=auto;html=1;" parent="1" source="Xy19DxBYmVt9RFk1YGQX-10" target="wnIjS79g1sQR4ne2AyyQ-11" edge="1">
          <mxGeometry relative="1" as="geometry" />
        </mxCell>
        <mxCell id="Xy19DxBYmVt9RFk1YGQX-10" value="Variablenwert" style="rounded=0;whiteSpace=wrap;html=1;" parent="1" vertex="1">
          <mxGeometry x="640" y="840" width="100" height="40" as="geometry" />
        </mxCell>
        <mxCell id="Xy19DxBYmVt9RFk1YGQX-25" value="[Die Schrittdefinition für ContainerTransformation]" style="rounded=0;whiteSpace=wrap;html=1;" parent="1" vertex="1">
          <mxGeometry x="280" y="1120" width="200" height="40" as="geometry" />
        </mxCell>
        <mxCell id="VncrwMLAorD3W6XY7oEO-13" value="PipelineSequence: [Zeilenumbruch]" style="ellipse;whiteSpace=wrap;html=1;" parent="1" vertex="1">
          <mxGeometry x="120" y="1800" width="210" height="40" as="geometry" />
        </mxCell>
        <mxCell id="VncrwMLAorD3W6XY7oEO-17" value="__{} [Zeilenumbruch]" style="ellipse;whiteSpace=wrap;html=1;" parent="1" vertex="1">
          <mxGeometry x="200" y="760" width="140" height="40" as="geometry" />
        </mxCell>
        <mxCell id="VncrwMLAorD3W6XY7oEO-19" value="" style="endArrow=classic;html=1;rounded=0;entryX=0;entryY=0.5;entryDx=0;entryDy=0;" parent="1" edge="1">
          <mxGeometry width="50" height="50" relative="1" as="geometry">
            <mxPoint x="160" y="860" as="sourcePoint" />
            <mxPoint x="200" y="860" as="targetPoint" />
          </mxGeometry>
        </mxCell>
        <mxCell id="VncrwMLAorD3W6XY7oEO-20" value="" style="endArrow=classic;html=1;rounded=0;entryX=0;entryY=0.5;entryDx=0;entryDy=0;" parent="1" target="VncrwMLAorD3W6XY7oEO-17" edge="1">
          <mxGeometry width="50" height="50" relative="1" as="geometry">
            <mxPoint x="160" y="780" as="sourcePoint" />
            <mxPoint x="300" y="920" as="targetPoint" />
          </mxGeometry>
        </mxCell>
        <mxCell id="VncrwMLAorD3W6XY7oEO-30" value="" style="endArrow=classic;html=1;rounded=0;entryX=0;entryY=0.5;entryDx=0;entryDy=0;" parent="1" target="Xy19DxBYmVt9RFk1YGQX-25" edge="1">
          <mxGeometry width="50" height="50" relative="1" as="geometry">
            <mxPoint x="240" y="1140" as="sourcePoint" />
            <mxPoint x="280" y="1140" as="targetPoint" />
          </mxGeometry>
        </mxCell>
        <mxCell id="VncrwMLAorD3W6XY7oEO-32" value="[Die Schrittdefinition für ContainerCodeGeneration]" style="rounded=0;whiteSpace=wrap;html=1;" parent="1" vertex="1">
          <mxGeometry x="280" y="1200" width="200" height="40" as="geometry" />
        </mxCell>
        <mxCell id="VncrwMLAorD3W6XY7oEO-33" value="[Die Schrittdefinition für&amp;nbsp;ComponentCodeGeneration]" style="rounded=0;whiteSpace=wrap;html=1;" parent="1" vertex="1">
          <mxGeometry x="280" y="1280" width="200" height="40" as="geometry" />
        </mxCell>
        <mxCell id="VncrwMLAorD3W6XY7oEO-50" value="- direct:_" style="ellipse;whiteSpace=wrap;html=1;" parent="1" vertex="1">
          <mxGeometry x="200" y="1560" width="80" height="40" as="geometry" />
        </mxCell>
        <mxCell id="VncrwMLAorD3W6XY7oEO-52" value="" style="endArrow=none;html=1;rounded=0;endFill=0;" parent="1" edge="1">
          <mxGeometry width="50" height="50" relative="1" as="geometry">
            <mxPoint x="160" y="1420" as="sourcePoint" />
            <mxPoint x="160" y="1700" as="targetPoint" />
          </mxGeometry>
        </mxCell>
        <mxCell id="VncrwMLAorD3W6XY7oEO-53" value="" style="endArrow=classic;html=1;rounded=0;entryX=0;entryY=0.5;entryDx=0;entryDy=0;" parent="1" target="VncrwMLAorD3W6XY7oEO-50" edge="1">
          <mxGeometry width="50" height="50" relative="1" as="geometry">
            <mxPoint x="160" y="1580" as="sourcePoint" />
            <mxPoint x="290" y="1591" as="targetPoint" />
          </mxGeometry>
        </mxCell>
        <mxCell id="VncrwMLAorD3W6XY7oEO-54" value="" style="endArrow=classic;html=1;rounded=0;entryX=0;entryY=0.5;entryDx=0;entryDy=0;" parent="1" edge="1">
          <mxGeometry width="50" height="50" relative="1" as="geometry">
            <mxPoint x="160" y="1501" as="sourcePoint" />
            <mxPoint x="200" y="1501" as="targetPoint" />
          </mxGeometry>
        </mxCell>
        <mxCell id="VncrwMLAorD3W6XY7oEO-55" value="" style="endArrow=classic;html=1;rounded=0;exitX=1;exitY=0.5;exitDx=0;exitDy=0;" parent="1" source="VncrwMLAorD3W6XY7oEO-50" edge="1">
          <mxGeometry width="50" height="50" relative="1" as="geometry">
            <mxPoint x="460" y="1620" as="sourcePoint" />
            <mxPoint x="320" y="1580" as="targetPoint" />
          </mxGeometry>
        </mxCell>
        <mxCell id="E0emM88F3iHoWUEOLmMb-8" value="[Eine Schrittdefinition]" style="rounded=0;whiteSpace=wrap;html=1;" parent="1" vertex="1">
          <mxGeometry x="320" y="1560" width="140" height="40" as="geometry" />
        </mxCell>
        <mxCell id="E0emM88F3iHoWUEOLmMb-10" value="__{} [Zeilenumbruch]" style="ellipse;whiteSpace=wrap;html=1;" parent="1" vertex="1">
          <mxGeometry x="200" y="1040" width="120" height="40" as="geometry" />
        </mxCell>
        <mxCell id="E0emM88F3iHoWUEOLmMb-11" value="__{} [Zeilenumbruch]" style="ellipse;whiteSpace=wrap;html=1;" parent="1" vertex="1">
          <mxGeometry x="200" y="1480" width="120" height="40" as="geometry" />
        </mxCell>
        <mxCell id="E0emM88F3iHoWUEOLmMb-12" value="Ein Unterstrich (_) steht für ein Leerzeichen ( ).&lt;div&gt;In YAML sind Einrückungen wichtig,&amp;nbsp;&lt;/div&gt;&lt;div&gt;also ebenfalls nicht vergessen!&lt;/div&gt;" style="shape=note;size=20;whiteSpace=wrap;html=1;" parent="1" vertex="1">
          <mxGeometry x="600" y="600" width="300" height="60" as="geometry" />
        </mxCell>
        <mxCell id="E0emM88F3iHoWUEOLmMb-14" value="" style="endArrow=classic;html=1;rounded=0;exitX=0.5;exitY=1;exitDx=0;exitDy=0;entryX=0.5;entryY=0;entryDx=0;entryDy=0;" parent="1" source="VncrwMLAorD3W6XY7oEO-32" target="E0emM88F3iHoWUEOLmMb-128" edge="1">
          <mxGeometry width="50" height="50" relative="1" as="geometry">
            <mxPoint x="420" y="1260" as="sourcePoint" />
            <mxPoint x="250" y="1260" as="targetPoint" />
            <Array as="points">
              <mxPoint x="380" y="1260" />
              <mxPoint x="220" y="1260" />
            </Array>
          </mxGeometry>
        </mxCell>
        <mxCell id="E0emM88F3iHoWUEOLmMb-16" value="" style="endArrow=classic;html=1;rounded=0;exitX=0.5;exitY=1;exitDx=0;exitDy=0;entryX=0.5;entryY=0;entryDx=0;entryDy=0;" parent="1" source="Xy19DxBYmVt9RFk1YGQX-25" target="E0emM88F3iHoWUEOLmMb-124" edge="1">
          <mxGeometry width="50" height="50" relative="1" as="geometry">
            <mxPoint x="660" y="1280" as="sourcePoint" />
            <mxPoint x="250" y="1180" as="targetPoint" />
            <Array as="points">
              <mxPoint x="380" y="1180" />
              <mxPoint x="220" y="1180" />
            </Array>
          </mxGeometry>
        </mxCell>
        <mxCell id="E0emM88F3iHoWUEOLmMb-17" value="- from_" style="ellipse;whiteSpace=wrap;html=1;" parent="1" vertex="1">
          <mxGeometry x="200" y="1680" width="80" height="40" as="geometry" />
        </mxCell>
        <mxCell id="E0emM88F3iHoWUEOLmMb-18" value="" style="endArrow=classic;html=1;rounded=0;entryX=0;entryY=0.5;entryDx=0;entryDy=0;" parent="1" target="E0emM88F3iHoWUEOLmMb-17" edge="1">
          <mxGeometry width="50" height="50" relative="1" as="geometry">
            <mxPoint x="160" y="1700" as="sourcePoint" />
            <mxPoint x="210" y="1590" as="targetPoint" />
          </mxGeometry>
        </mxCell>
        <mxCell id="E0emM88F3iHoWUEOLmMb-19" value="TransformationAndCodeGenerationPreconfigurations:_" style="ellipse;whiteSpace=wrap;html=1;" parent="1" vertex="1">
          <mxGeometry x="320" y="1670" width="320" height="60" as="geometry" />
        </mxCell>
        <mxCell id="E0emM88F3iHoWUEOLmMb-20" value="" style="endArrow=classic;html=1;rounded=0;entryX=0;entryY=0.5;entryDx=0;entryDy=0;exitX=1;exitY=0.5;exitDx=0;exitDy=0;" parent="1" source="E0emM88F3iHoWUEOLmMb-17" target="E0emM88F3iHoWUEOLmMb-19" edge="1">
          <mxGeometry width="50" height="50" relative="1" as="geometry">
            <mxPoint x="280" y="1710" as="sourcePoint" />
            <mxPoint x="840" y="1580" as="targetPoint" />
          </mxGeometry>
        </mxCell>
        <mxCell id="E0emM88F3iHoWUEOLmMb-21" value="[Name eines Schrittes, der in TransformationAndCodeGenerationPreconfigurations definiert ist]" style="rounded=0;whiteSpace=wrap;html=1;" parent="1" vertex="1">
          <mxGeometry x="700" y="1670" width="320" height="60" as="geometry" />
        </mxCell>
        <mxCell id="E0emM88F3iHoWUEOLmMb-23" value="" style="endArrow=classic;html=1;rounded=0;entryX=0;entryY=0.5;entryDx=0;entryDy=0;exitX=1;exitY=0.5;exitDx=0;exitDy=0;" parent="1" source="E0emM88F3iHoWUEOLmMb-19" target="E0emM88F3iHoWUEOLmMb-21" edge="1">
          <mxGeometry width="50" height="50" relative="1" as="geometry">
            <mxPoint x="290" y="1720" as="sourcePoint" />
            <mxPoint x="330" y="1720" as="targetPoint" />
          </mxGeometry>
        </mxCell>
        <mxCell id="E0emM88F3iHoWUEOLmMb-24" value="[Zeilenumbruch]" style="ellipse;whiteSpace=wrap;html=1;" parent="1" vertex="1">
          <mxGeometry x="1060" y="1679.5" width="100" height="40" as="geometry" />
        </mxCell>
        <mxCell id="E0emM88F3iHoWUEOLmMb-25" value="" style="endArrow=classic;html=1;rounded=0;entryX=0;entryY=0.5;entryDx=0;entryDy=0;exitX=1;exitY=0.5;exitDx=0;exitDy=0;" parent="1" source="E0emM88F3iHoWUEOLmMb-21" target="E0emM88F3iHoWUEOLmMb-24" edge="1">
          <mxGeometry width="50" height="50" relative="1" as="geometry">
            <mxPoint x="930" y="1849.5" as="sourcePoint" />
            <mxPoint x="980" y="1799.5" as="targetPoint" />
          </mxGeometry>
        </mxCell>
        <mxCell id="E0emM88F3iHoWUEOLmMb-28" value="" style="endArrow=classic;html=1;rounded=0;entryX=0.5;entryY=1;entryDx=0;entryDy=0;" parent="1" target="VncrwMLAorD3W6XY7oEO-50" edge="1">
          <mxGeometry width="50" height="50" relative="1" as="geometry">
            <mxPoint x="240" y="1640" as="sourcePoint" />
            <mxPoint x="860" y="1580" as="targetPoint" />
          </mxGeometry>
        </mxCell>
        <mxCell id="E0emM88F3iHoWUEOLmMb-29" value="" style="endArrow=classic;html=1;rounded=0;entryX=0.5;entryY=0;entryDx=0;entryDy=0;" parent="1" target="E0emM88F3iHoWUEOLmMb-17" edge="1">
          <mxGeometry width="50" height="50" relative="1" as="geometry">
            <mxPoint x="240" y="1640" as="sourcePoint" />
            <mxPoint x="860" y="1580" as="targetPoint" />
          </mxGeometry>
        </mxCell>
        <mxCell id="E0emM88F3iHoWUEOLmMb-31" value="" style="endArrow=none;html=1;rounded=0;" parent="1" edge="1">
          <mxGeometry width="50" height="50" relative="1" as="geometry">
            <mxPoint x="240" y="1640" as="sourcePoint" />
            <mxPoint x="560" y="1640" as="targetPoint" />
          </mxGeometry>
        </mxCell>
        <mxCell id="E0emM88F3iHoWUEOLmMb-33" value="" style="endArrow=none;html=1;rounded=0;exitX=1;exitY=0.5;exitDx=0;exitDy=0;" parent="1" edge="1">
          <mxGeometry width="50" height="50" relative="1" as="geometry">
            <mxPoint x="1160" y="1699.5" as="sourcePoint" />
            <mxPoint x="1180" y="1640" as="targetPoint" />
            <Array as="points">
              <mxPoint x="1180" y="1700" />
            </Array>
          </mxGeometry>
        </mxCell>
        <mxCell id="E0emM88F3iHoWUEOLmMb-36" value="" style="endArrow=classic;html=1;rounded=0;entryX=0;entryY=0.5;entryDx=0;entryDy=0;" parent="1" target="Xy19DxBYmVt9RFk1YGQX-6" edge="1">
          <mxGeometry width="50" height="50" relative="1" as="geometry">
            <mxPoint x="80" y="700" as="sourcePoint" />
            <mxPoint x="520" y="690" as="targetPoint" />
          </mxGeometry>
        </mxCell>
        <mxCell id="E0emM88F3iHoWUEOLmMb-37" value="" style="endArrow=classic;html=1;rounded=0;" parent="1" edge="1">
          <mxGeometry width="50" height="50" relative="1" as="geometry">
            <mxPoint x="80" y="660" as="sourcePoint" />
            <mxPoint x="80" y="920" as="targetPoint" />
          </mxGeometry>
        </mxCell>
        <mxCell id="E0emM88F3iHoWUEOLmMb-38" value="" style="endArrow=classic;html=1;rounded=0;entryX=0;entryY=0.5;entryDx=0;entryDy=0;" parent="1" edge="1">
          <mxGeometry width="50" height="50" relative="1" as="geometry">
            <mxPoint x="80" y="990" as="sourcePoint" />
            <mxPoint x="120" y="990" as="targetPoint" />
          </mxGeometry>
        </mxCell>
        <mxCell id="E0emM88F3iHoWUEOLmMb-39" value="" style="endArrow=classic;html=1;rounded=0;" parent="1" edge="1">
          <mxGeometry width="50" height="50" relative="1" as="geometry">
            <mxPoint x="80" y="920" as="sourcePoint" />
            <mxPoint x="80" y="1360" as="targetPoint" />
          </mxGeometry>
        </mxCell>
        <mxCell id="E0emM88F3iHoWUEOLmMb-40" value="" style="endArrow=classic;html=1;rounded=0;entryX=0;entryY=0.5;entryDx=0;entryDy=0;" parent="1" edge="1">
          <mxGeometry width="50" height="50" relative="1" as="geometry">
            <mxPoint x="80" y="1420" as="sourcePoint" />
            <mxPoint x="120" y="1420" as="targetPoint" />
          </mxGeometry>
        </mxCell>
        <mxCell id="E0emM88F3iHoWUEOLmMb-41" value="" style="endArrow=classic;html=1;rounded=0;" parent="1" edge="1">
          <mxGeometry width="50" height="50" relative="1" as="geometry">
            <mxPoint x="80" y="1360" as="sourcePoint" />
            <mxPoint x="80" y="1760" as="targetPoint" />
          </mxGeometry>
        </mxCell>
        <mxCell id="E0emM88F3iHoWUEOLmMb-42" value="" style="endArrow=classic;html=1;rounded=0;entryX=0;entryY=0.5;entryDx=0;entryDy=0;" parent="1" edge="1">
          <mxGeometry width="50" height="50" relative="1" as="geometry">
            <mxPoint x="80" y="1820" as="sourcePoint" />
            <mxPoint x="120" y="1820" as="targetPoint" />
          </mxGeometry>
        </mxCell>
        <mxCell id="E0emM88F3iHoWUEOLmMb-43" value="" style="endArrow=classic;html=1;rounded=0;" parent="1" edge="1">
          <mxGeometry width="50" height="50" relative="1" as="geometry">
            <mxPoint x="80" y="1760" as="sourcePoint" />
            <mxPoint x="80" y="2240" as="targetPoint" />
          </mxGeometry>
        </mxCell>
        <mxCell id="E0emM88F3iHoWUEOLmMb-65" value="- direct:_" style="ellipse;whiteSpace=wrap;html=1;" parent="1" vertex="1">
          <mxGeometry x="200" y="1960" width="80" height="40" as="geometry" />
        </mxCell>
        <mxCell id="E0emM88F3iHoWUEOLmMb-66" value="" style="endArrow=classic;html=1;rounded=0;entryX=0;entryY=0.5;entryDx=0;entryDy=0;" parent="1" target="E0emM88F3iHoWUEOLmMb-65" edge="1">
          <mxGeometry width="50" height="50" relative="1" as="geometry">
            <mxPoint x="160" y="1980" as="sourcePoint" />
            <mxPoint x="290" y="1991" as="targetPoint" />
          </mxGeometry>
        </mxCell>
        <mxCell id="E0emM88F3iHoWUEOLmMb-67" value="" style="endArrow=classic;html=1;rounded=0;entryX=0;entryY=0.5;entryDx=0;entryDy=0;" parent="1" edge="1">
          <mxGeometry width="50" height="50" relative="1" as="geometry">
            <mxPoint x="160" y="1901" as="sourcePoint" />
            <mxPoint x="200" y="1901" as="targetPoint" />
          </mxGeometry>
        </mxCell>
        <mxCell id="E0emM88F3iHoWUEOLmMb-68" value="" style="endArrow=classic;html=1;rounded=0;exitX=1;exitY=0.5;exitDx=0;exitDy=0;" parent="1" source="E0emM88F3iHoWUEOLmMb-65" edge="1">
          <mxGeometry width="50" height="50" relative="1" as="geometry">
            <mxPoint x="460" y="2020" as="sourcePoint" />
            <mxPoint x="320" y="1980" as="targetPoint" />
          </mxGeometry>
        </mxCell>
        <mxCell id="E0emM88F3iHoWUEOLmMb-69" value="[Eine Schrittdefinition]" style="rounded=0;whiteSpace=wrap;html=1;" parent="1" vertex="1">
          <mxGeometry x="320" y="1960" width="140" height="40" as="geometry" />
        </mxCell>
        <mxCell id="E0emM88F3iHoWUEOLmMb-70" value="__{} [Zeilenumbruch]" style="ellipse;whiteSpace=wrap;html=1;" parent="1" vertex="1">
          <mxGeometry x="200" y="1880" width="120" height="40" as="geometry" />
        </mxCell>
        <mxCell id="E0emM88F3iHoWUEOLmMb-71" value="- from_" style="ellipse;whiteSpace=wrap;html=1;" parent="1" vertex="1">
          <mxGeometry x="200" y="2080" width="80" height="40" as="geometry" />
        </mxCell>
        <mxCell id="E0emM88F3iHoWUEOLmMb-72" value="" style="endArrow=classic;html=1;rounded=0;entryX=0;entryY=0.5;entryDx=0;entryDy=0;" parent="1" target="E0emM88F3iHoWUEOLmMb-71" edge="1">
          <mxGeometry width="50" height="50" relative="1" as="geometry">
            <mxPoint x="160" y="2100" as="sourcePoint" />
            <mxPoint x="210" y="1990" as="targetPoint" />
          </mxGeometry>
        </mxCell>
        <mxCell id="E0emM88F3iHoWUEOLmMb-73" value="TransformationAndCodeGenerationPreconfigurations&lt;span style=&quot;background-color: initial;&quot;&gt;:_&lt;/span&gt;" style="ellipse;whiteSpace=wrap;html=1;" parent="1" vertex="1">
          <mxGeometry x="360" y="2070" width="320" height="60" as="geometry" />
        </mxCell>
        <mxCell id="E0emM88F3iHoWUEOLmMb-74" value="" style="endArrow=classic;html=1;rounded=0;entryX=0;entryY=0.5;entryDx=0;entryDy=0;exitX=1;exitY=0.5;exitDx=0;exitDy=0;" parent="1" source="E0emM88F3iHoWUEOLmMb-71" target="E0emM88F3iHoWUEOLmMb-73" edge="1">
          <mxGeometry width="50" height="50" relative="1" as="geometry">
            <mxPoint x="320.00000000000637" y="2099.9999999999995" as="sourcePoint" />
            <mxPoint x="880" y="1980" as="targetPoint" />
          </mxGeometry>
        </mxCell>
        <mxCell id="E0emM88F3iHoWUEOLmMb-75" value="[Name eines Schrittes, der in TransformationAndCodeGenerationPreconfigurations definiert ist]" style="rounded=0;whiteSpace=wrap;html=1;" parent="1" vertex="1">
          <mxGeometry x="720" y="2070" width="300" height="60" as="geometry" />
        </mxCell>
        <mxCell id="E0emM88F3iHoWUEOLmMb-76" value="" style="endArrow=classic;html=1;rounded=0;entryX=0;entryY=0.5;entryDx=0;entryDy=0;exitX=1;exitY=0.5;exitDx=0;exitDy=0;" parent="1" source="E0emM88F3iHoWUEOLmMb-73" target="E0emM88F3iHoWUEOLmMb-75" edge="1">
          <mxGeometry width="50" height="50" relative="1" as="geometry">
            <mxPoint x="330" y="2120" as="sourcePoint" />
            <mxPoint x="370" y="2120" as="targetPoint" />
          </mxGeometry>
        </mxCell>
        <mxCell id="E0emM88F3iHoWUEOLmMb-77" value="[Zeilenumbruch]" style="ellipse;whiteSpace=wrap;html=1;" parent="1" vertex="1">
          <mxGeometry x="1060" y="2080" width="100" height="40" as="geometry" />
        </mxCell>
        <mxCell id="E0emM88F3iHoWUEOLmMb-78" value="" style="endArrow=classic;html=1;rounded=0;exitX=1;exitY=0.5;exitDx=0;exitDy=0;" parent="1" source="E0emM88F3iHoWUEOLmMb-75" edge="1">
          <mxGeometry width="50" height="50" relative="1" as="geometry">
            <mxPoint x="950" y="2250" as="sourcePoint" />
            <mxPoint x="1060" y="2100" as="targetPoint" />
          </mxGeometry>
        </mxCell>
        <mxCell id="E0emM88F3iHoWUEOLmMb-79" value="" style="endArrow=classic;html=1;rounded=0;entryX=0.5;entryY=1;entryDx=0;entryDy=0;" parent="1" target="E0emM88F3iHoWUEOLmMb-65" edge="1">
          <mxGeometry width="50" height="50" relative="1" as="geometry">
            <mxPoint x="240" y="2040" as="sourcePoint" />
            <mxPoint x="860" y="1980" as="targetPoint" />
          </mxGeometry>
        </mxCell>
        <mxCell id="E0emM88F3iHoWUEOLmMb-80" value="" style="endArrow=classic;html=1;rounded=0;entryX=0.5;entryY=0;entryDx=0;entryDy=0;" parent="1" target="E0emM88F3iHoWUEOLmMb-71" edge="1">
          <mxGeometry width="50" height="50" relative="1" as="geometry">
            <mxPoint x="240" y="2040" as="sourcePoint" />
            <mxPoint x="860" y="1980" as="targetPoint" />
          </mxGeometry>
        </mxCell>
        <mxCell id="E0emM88F3iHoWUEOLmMb-82" value="" style="endArrow=none;html=1;rounded=0;" parent="1" edge="1">
          <mxGeometry width="50" height="50" relative="1" as="geometry">
            <mxPoint x="240" y="2040" as="sourcePoint" />
            <mxPoint x="560" y="2040" as="targetPoint" />
          </mxGeometry>
        </mxCell>
        <mxCell id="E0emM88F3iHoWUEOLmMb-86" value="" style="endArrow=none;html=1;rounded=0;endFill=0;" parent="1" edge="1">
          <mxGeometry width="50" height="50" relative="1" as="geometry">
            <mxPoint x="160" y="1840" as="sourcePoint" />
            <mxPoint x="160" y="2101.76" as="targetPoint" />
          </mxGeometry>
        </mxCell>
        <mxCell id="E0emM88F3iHoWUEOLmMb-87" value="StandalonePostProcessingSequence:_all" style="ellipse;whiteSpace=wrap;html=1;" parent="1" vertex="1">
          <mxGeometry x="360" y="2150" width="240" height="60" as="geometry" />
        </mxCell>
        <mxCell id="E0emM88F3iHoWUEOLmMb-88" value="" style="endArrow=classic;html=1;rounded=0;entryX=0;entryY=0.5;entryDx=0;entryDy=0;" parent="1" target="E0emM88F3iHoWUEOLmMb-87" edge="1">
          <mxGeometry width="50" height="50" relative="1" as="geometry">
            <mxPoint x="320" y="2100" as="sourcePoint" />
            <mxPoint x="330" y="1990" as="targetPoint" />
            <Array as="points">
              <mxPoint x="320" y="2180" />
            </Array>
          </mxGeometry>
        </mxCell>
        <mxCell id="E0emM88F3iHoWUEOLmMb-89" value="" style="endArrow=classic;html=1;rounded=0;" parent="1" edge="1">
          <mxGeometry width="50" height="50" relative="1" as="geometry">
            <mxPoint x="1180" y="1640" as="sourcePoint" />
            <mxPoint x="560" y="1640" as="targetPoint" />
          </mxGeometry>
        </mxCell>
        <mxCell id="E0emM88F3iHoWUEOLmMb-90" value="" style="endArrow=classic;html=1;rounded=0;exitX=0.5;exitY=1;exitDx=0;exitDy=0;" parent="1" source="E0emM88F3iHoWUEOLmMb-114" edge="1">
          <mxGeometry width="50" height="50" relative="1" as="geometry">
            <mxPoint x="840" y="1650" as="sourcePoint" />
            <mxPoint x="560" y="1640" as="targetPoint" />
          </mxGeometry>
        </mxCell>
        <mxCell id="E0emM88F3iHoWUEOLmMb-91" value="" style="endArrow=classic;html=1;rounded=0;" parent="1" edge="1">
          <mxGeometry width="50" height="50" relative="1" as="geometry">
            <mxPoint x="1180" y="2040" as="sourcePoint" />
            <mxPoint x="560" y="2040" as="targetPoint" />
          </mxGeometry>
        </mxCell>
        <mxCell id="E0emM88F3iHoWUEOLmMb-93" value="" style="endArrow=none;html=1;rounded=0;exitX=1;exitY=0.5;exitDx=0;exitDy=0;" parent="1" source="E0emM88F3iHoWUEOLmMb-10" edge="1">
          <mxGeometry width="50" height="50" relative="1" as="geometry">
            <mxPoint x="600" y="1490" as="sourcePoint" />
            <mxPoint x="520" y="1360" as="targetPoint" />
            <Array as="points">
              <mxPoint x="520" y="1060" />
            </Array>
          </mxGeometry>
        </mxCell>
        <mxCell id="E0emM88F3iHoWUEOLmMb-94" value="" style="endArrow=classic;html=1;rounded=0;" parent="1" edge="1">
          <mxGeometry width="50" height="50" relative="1" as="geometry">
            <mxPoint x="520" y="1360" as="sourcePoint" />
            <mxPoint x="380" y="1360" as="targetPoint" />
          </mxGeometry>
        </mxCell>
        <mxCell id="E0emM88F3iHoWUEOLmMb-96" value="" style="endArrow=classic;html=1;rounded=0;" parent="1" edge="1">
          <mxGeometry width="50" height="50" relative="1" as="geometry">
            <mxPoint x="1140" y="1760" as="sourcePoint" />
            <mxPoint x="80" y="1760" as="targetPoint" />
          </mxGeometry>
        </mxCell>
        <mxCell id="E0emM88F3iHoWUEOLmMb-98" value="" style="endArrow=classic;html=1;rounded=0;" parent="1" edge="1">
          <mxGeometry width="50" height="50" relative="1" as="geometry">
            <mxPoint x="1220" y="2240" as="sourcePoint" />
            <mxPoint x="80" y="2240" as="targetPoint" />
          </mxGeometry>
        </mxCell>
        <mxCell id="E0emM88F3iHoWUEOLmMb-99" value="" style="endArrow=classic;html=1;rounded=0;" parent="1" edge="1">
          <mxGeometry width="50" height="50" relative="1" as="geometry">
            <mxPoint x="80" y="2240" as="sourcePoint" />
            <mxPoint x="80" y="2280" as="targetPoint" />
          </mxGeometry>
        </mxCell>
        <mxCell id="E0emM88F3iHoWUEOLmMb-100" value="" style="endArrow=classic;html=1;rounded=0;exitX=0.5;exitY=1;exitDx=0;exitDy=0;" parent="1" source="E0emM88F3iHoWUEOLmMb-24" edge="1">
          <mxGeometry width="50" height="50" relative="1" as="geometry">
            <mxPoint x="900" y="1619.5" as="sourcePoint" />
            <mxPoint x="1110" y="1760" as="targetPoint" />
          </mxGeometry>
        </mxCell>
        <mxCell id="E0emM88F3iHoWUEOLmMb-102" value="" style="endArrow=none;html=1;rounded=0;" parent="1" edge="1">
          <mxGeometry width="50" height="50" relative="1" as="geometry">
            <mxPoint x="1180" y="2040" as="sourcePoint" />
            <mxPoint x="1180" y="2100" as="targetPoint" />
          </mxGeometry>
        </mxCell>
        <mxCell id="E0emM88F3iHoWUEOLmMb-103" value="" style="endArrow=classic;html=1;rounded=0;exitX=1;exitY=0.5;exitDx=0;exitDy=0;" parent="1" source="E0emM88F3iHoWUEOLmMb-77" edge="1">
          <mxGeometry width="50" height="50" relative="1" as="geometry">
            <mxPoint x="900" y="1890" as="sourcePoint" />
            <mxPoint x="1180" y="2100" as="targetPoint" />
          </mxGeometry>
        </mxCell>
        <mxCell id="E0emM88F3iHoWUEOLmMb-104" value="" style="endArrow=classic;html=1;rounded=0;exitX=1;exitY=0.5;exitDx=0;exitDy=0;" parent="1" source="E0emM88F3iHoWUEOLmMb-87" edge="1">
          <mxGeometry width="50" height="50" relative="1" as="geometry">
            <mxPoint x="770" y="2180" as="sourcePoint" />
            <mxPoint x="1180" y="2100" as="targetPoint" />
            <Array as="points">
              <mxPoint x="1180" y="2180" />
            </Array>
          </mxGeometry>
        </mxCell>
        <mxCell id="E0emM88F3iHoWUEOLmMb-105" value="" style="endArrow=classic;html=1;rounded=0;" parent="1" edge="1">
          <mxGeometry width="50" height="50" relative="1" as="geometry">
            <mxPoint x="1180" y="2100" as="sourcePoint" />
            <mxPoint x="1220" y="2100" as="targetPoint" />
          </mxGeometry>
        </mxCell>
        <mxCell id="E0emM88F3iHoWUEOLmMb-106" value="" style="endArrow=classic;html=1;rounded=0;" parent="1" edge="1">
          <mxGeometry width="50" height="50" relative="1" as="geometry">
            <mxPoint x="1200" y="1760" as="sourcePoint" />
            <mxPoint x="1110" y="1760" as="targetPoint" />
          </mxGeometry>
        </mxCell>
        <mxCell id="E0emM88F3iHoWUEOLmMb-107" value="" style="endArrow=classic;html=1;rounded=0;" parent="1" edge="1">
          <mxGeometry width="50" height="50" relative="1" as="geometry">
            <mxPoint x="1220" y="1900" as="sourcePoint" />
            <mxPoint x="1220" y="1980" as="targetPoint" />
          </mxGeometry>
        </mxCell>
        <mxCell id="E0emM88F3iHoWUEOLmMb-108" value="" style="endArrow=none;html=1;rounded=0;" parent="1" edge="1">
          <mxGeometry width="50" height="50" relative="1" as="geometry">
            <mxPoint x="1220" y="2100" as="sourcePoint" />
            <mxPoint x="1220" y="2240" as="targetPoint" />
          </mxGeometry>
        </mxCell>
        <mxCell id="E0emM88F3iHoWUEOLmMb-109" value="" style="endArrow=none;html=1;rounded=0;exitX=1;exitY=0.5;exitDx=0;exitDy=0;" parent="1" source="E0emM88F3iHoWUEOLmMb-70" edge="1">
          <mxGeometry width="50" height="50" relative="1" as="geometry">
            <mxPoint x="1310" y="2110" as="sourcePoint" />
            <mxPoint x="1220" y="1900" as="targetPoint" />
          </mxGeometry>
        </mxCell>
        <mxCell id="E0emM88F3iHoWUEOLmMb-110" value="" style="endArrow=classic;html=1;rounded=0;" parent="1" edge="1">
          <mxGeometry width="50" height="50" relative="1" as="geometry">
            <mxPoint x="380" y="1360" as="sourcePoint" />
            <mxPoint x="80" y="1360" as="targetPoint" />
          </mxGeometry>
        </mxCell>
        <mxCell id="E0emM88F3iHoWUEOLmMb-111" value="" style="endArrow=classic;html=1;rounded=0;exitX=0.5;exitY=1;exitDx=0;exitDy=0;" parent="1" edge="1">
          <mxGeometry width="50" height="50" relative="1" as="geometry">
            <mxPoint x="380" y="1320" as="sourcePoint" />
            <mxPoint x="380" y="1360" as="targetPoint" />
          </mxGeometry>
        </mxCell>
        <mxCell id="E0emM88F3iHoWUEOLmMb-112" value="" style="endArrow=classic;html=1;rounded=0;exitX=1;exitY=0.5;exitDx=0;exitDy=0;" parent="1" source="E0emM88F3iHoWUEOLmMb-116" edge="1">
          <mxGeometry width="50" height="50" relative="1" as="geometry">
            <mxPoint x="680" y="1980" as="sourcePoint" />
            <mxPoint x="1220" y="1980" as="targetPoint" />
          </mxGeometry>
        </mxCell>
        <mxCell id="E0emM88F3iHoWUEOLmMb-113" value="" style="endArrow=classic;html=1;rounded=0;" parent="1" edge="1">
          <mxGeometry width="50" height="50" relative="1" as="geometry">
            <mxPoint x="1220" y="1980" as="sourcePoint" />
            <mxPoint x="1220" y="2100" as="targetPoint" />
          </mxGeometry>
        </mxCell>
        <mxCell id="E0emM88F3iHoWUEOLmMb-114" value="[Zeilenumbruch]" style="ellipse;whiteSpace=wrap;html=1;" parent="1" vertex="1">
          <mxGeometry x="510" y="1560" width="100" height="40" as="geometry" />
        </mxCell>
        <mxCell id="E0emM88F3iHoWUEOLmMb-115" value="" style="endArrow=classic;html=1;rounded=0;exitX=0.5;exitY=1;exitDx=0;exitDy=0;" parent="1" source="E0emM88F3iHoWUEOLmMb-116" edge="1">
          <mxGeometry width="50" height="50" relative="1" as="geometry">
            <mxPoint x="640" y="2010" as="sourcePoint" />
            <mxPoint x="560" y="2040" as="targetPoint" />
          </mxGeometry>
        </mxCell>
        <mxCell id="E0emM88F3iHoWUEOLmMb-116" value="[Zeilenumbruch]" style="ellipse;whiteSpace=wrap;html=1;" parent="1" vertex="1">
          <mxGeometry x="500" y="1960" width="120" height="40" as="geometry" />
        </mxCell>
        <mxCell id="E0emM88F3iHoWUEOLmMb-117" value="" style="endArrow=classic;html=1;rounded=0;exitX=1;exitY=0.5;exitDx=0;exitDy=0;entryX=0;entryY=0.5;entryDx=0;entryDy=0;" parent="1" source="E0emM88F3iHoWUEOLmMb-69" target="E0emM88F3iHoWUEOLmMb-116" edge="1">
          <mxGeometry width="50" height="50" relative="1" as="geometry">
            <mxPoint x="310" y="1990" as="sourcePoint" />
            <mxPoint x="350" y="1990" as="targetPoint" />
          </mxGeometry>
        </mxCell>
        <mxCell id="E0emM88F3iHoWUEOLmMb-118" value="" style="endArrow=classic;html=1;rounded=0;exitX=1;exitY=0.5;exitDx=0;exitDy=0;" parent="1" target="E0emM88F3iHoWUEOLmMb-114" edge="1">
          <mxGeometry width="50" height="50" relative="1" as="geometry">
            <mxPoint x="460" y="1579.5" as="sourcePoint" />
            <mxPoint x="500" y="1579.5" as="targetPoint" />
          </mxGeometry>
        </mxCell>
        <mxCell id="E0emM88F3iHoWUEOLmMb-120" value="" style="endArrow=classic;html=1;rounded=0;entryX=0;entryY=0.5;entryDx=0;entryDy=0;" parent="1" edge="1">
          <mxGeometry width="50" height="50" relative="1" as="geometry">
            <mxPoint x="160" y="1000" as="sourcePoint" />
            <mxPoint x="200" y="1060" as="targetPoint" />
            <Array as="points">
              <mxPoint x="160" y="1060" />
            </Array>
          </mxGeometry>
        </mxCell>
        <mxCell id="E0emM88F3iHoWUEOLmMb-121" value="" style="endArrow=classic;html=1;rounded=0;entryX=0;entryY=0.5;entryDx=0;entryDy=0;" parent="1" edge="1">
          <mxGeometry width="50" height="50" relative="1" as="geometry">
            <mxPoint x="160" y="1060" as="sourcePoint" />
            <mxPoint x="200" y="1140" as="targetPoint" />
            <Array as="points">
              <mxPoint x="160" y="1140" />
            </Array>
          </mxGeometry>
        </mxCell>
        <mxCell id="E0emM88F3iHoWUEOLmMb-122" value="__" style="ellipse;whiteSpace=wrap;html=1;" parent="1" vertex="1">
          <mxGeometry x="200" y="1120" width="40" height="40" as="geometry" />
        </mxCell>
        <mxCell id="E0emM88F3iHoWUEOLmMb-123" value="" style="endArrow=classic;html=1;rounded=0;entryX=0;entryY=0.5;entryDx=0;entryDy=0;" parent="1" edge="1">
          <mxGeometry width="50" height="50" relative="1" as="geometry">
            <mxPoint x="240" y="1220" as="sourcePoint" />
            <mxPoint x="280" y="1220" as="targetPoint" />
          </mxGeometry>
        </mxCell>
        <mxCell id="E0emM88F3iHoWUEOLmMb-124" value="__" style="ellipse;whiteSpace=wrap;html=1;" parent="1" vertex="1">
          <mxGeometry x="200" y="1200" width="40" height="40" as="geometry" />
        </mxCell>
        <mxCell id="E0emM88F3iHoWUEOLmMb-127" value="" style="endArrow=classic;html=1;rounded=0;entryX=0;entryY=0.5;entryDx=0;entryDy=0;" parent="1" edge="1">
          <mxGeometry width="50" height="50" relative="1" as="geometry">
            <mxPoint x="240" y="1300" as="sourcePoint" />
            <mxPoint x="280" y="1300" as="targetPoint" />
          </mxGeometry>
        </mxCell>
        <mxCell id="E0emM88F3iHoWUEOLmMb-128" value="__" style="ellipse;whiteSpace=wrap;html=1;" parent="1" vertex="1">
          <mxGeometry x="200" y="1280" width="40" height="40" as="geometry" />
        </mxCell>
        <mxCell id="CR32XnRNLav2fa-Jh0e9-1" value="" style="endArrow=classic;html=1;rounded=0;" parent="1" edge="1">
          <mxGeometry width="50" height="50" relative="1" as="geometry">
            <mxPoint x="160" y="720" as="sourcePoint" />
            <mxPoint x="160" y="820" as="targetPoint" />
          </mxGeometry>
        </mxCell>
        <mxCell id="CR32XnRNLav2fa-Jh0e9-2" value="" style="endArrow=none;html=1;rounded=0;exitX=1;exitY=0.5;exitDx=0;exitDy=0;" parent="1" source="wnIjS79g1sQR4ne2AyyQ-11" edge="1">
          <mxGeometry width="50" height="50" relative="1" as="geometry">
            <mxPoint x="800" y="940" as="sourcePoint" />
            <mxPoint x="920" y="820" as="targetPoint" />
            <Array as="points">
              <mxPoint x="920" y="860" />
            </Array>
          </mxGeometry>
        </mxCell>
        <mxCell id="CR32XnRNLav2fa-Jh0e9-3" value="" style="endArrow=classic;html=1;rounded=0;" parent="1" edge="1">
          <mxGeometry width="50" height="50" relative="1" as="geometry">
            <mxPoint x="920" y="820" as="sourcePoint" />
            <mxPoint x="160" y="820" as="targetPoint" />
          </mxGeometry>
        </mxCell>
        <mxCell id="CR32XnRNLav2fa-Jh0e9-4" value="" style="endArrow=none;html=1;rounded=0;" parent="1" edge="1">
          <mxGeometry width="50" height="50" relative="1" as="geometry">
            <mxPoint x="160" y="860" as="sourcePoint" />
            <mxPoint x="160" y="820" as="targetPoint" />
          </mxGeometry>
        </mxCell>
        <mxCell id="CR32XnRNLav2fa-Jh0e9-7" value="" style="endArrow=none;html=1;rounded=0;exitX=1;exitY=0.5;exitDx=0;exitDy=0;" parent="1" source="VncrwMLAorD3W6XY7oEO-17" edge="1">
          <mxGeometry width="50" height="50" relative="1" as="geometry">
            <mxPoint x="320" y="740" as="sourcePoint" />
            <mxPoint x="940" y="920" as="targetPoint" />
            <Array as="points">
              <mxPoint x="940" y="780" />
            </Array>
          </mxGeometry>
        </mxCell>
        <mxCell id="CR32XnRNLav2fa-Jh0e9-8" value="" style="endArrow=classic;html=1;rounded=0;" parent="1" edge="1">
          <mxGeometry width="50" height="50" relative="1" as="geometry">
            <mxPoint x="840" y="920" as="sourcePoint" />
            <mxPoint x="80" y="920" as="targetPoint" />
          </mxGeometry>
        </mxCell>
        <mxCell id="CR32XnRNLav2fa-Jh0e9-10" value="" style="endArrow=classic;html=1;rounded=0;" parent="1" edge="1">
          <mxGeometry width="50" height="50" relative="1" as="geometry">
            <mxPoint x="940" y="920" as="sourcePoint" />
            <mxPoint x="840" y="920" as="targetPoint" />
          </mxGeometry>
        </mxCell>
        <mxCell id="1L7ZGr4s77mQXhDOBSkt-1" value="" style="endArrow=classic;html=1;rounded=0;" parent="1" source="E0emM88F3iHoWUEOLmMb-114" edge="1">
          <mxGeometry width="50" height="50" relative="1" as="geometry">
            <mxPoint x="600" y="1579.5" as="sourcePoint" />
            <mxPoint x="1200" y="1580" as="targetPoint" />
          </mxGeometry>
        </mxCell>
        <mxCell id="1L7ZGr4s77mQXhDOBSkt-3" value="" style="endArrow=none;html=1;rounded=0;" parent="1" edge="1">
          <mxGeometry width="50" height="50" relative="1" as="geometry">
            <mxPoint x="320" y="1499.5" as="sourcePoint" />
            <mxPoint x="1200" y="1500" as="targetPoint" />
          </mxGeometry>
        </mxCell>
        <mxCell id="1L7ZGr4s77mQXhDOBSkt-4" value="" style="endArrow=classic;html=1;rounded=0;" parent="1" edge="1">
          <mxGeometry width="50" height="50" relative="1" as="geometry">
            <mxPoint x="1200" y="1500" as="sourcePoint" />
            <mxPoint x="1200" y="1580" as="targetPoint" />
          </mxGeometry>
        </mxCell>
        <mxCell id="1L7ZGr4s77mQXhDOBSkt-6" value="" style="endArrow=none;html=1;rounded=0;endFill=0;" parent="1" edge="1">
          <mxGeometry width="50" height="50" relative="1" as="geometry">
            <mxPoint x="1200" y="1580" as="sourcePoint" />
            <mxPoint x="1200" y="1760" as="targetPoint" />
          </mxGeometry>
        </mxCell>
        <mxCell id="2dUyCxh0dzYOMJSv52OM-2" style="edgeStyle=orthogonalEdgeStyle;rounded=0;orthogonalLoop=1;jettySize=auto;html=1;" parent="1" source="wnIjS79g1sQR4ne2AyyQ-7" target="r34noBHzzs_WBURP-22c-2" edge="1">
          <mxGeometry relative="1" as="geometry" />
        </mxCell>
        <mxCell id="wnIjS79g1sQR4ne2AyyQ-7" value="_" style="ellipse;whiteSpace=wrap;html=1;" parent="1" vertex="1">
          <mxGeometry x="340" y="840" width="40" height="40" as="geometry" />
        </mxCell>
        <mxCell id="ScVfvogTv9xMVRX8Qx-c-1" style="edgeStyle=orthogonalEdgeStyle;rounded=0;orthogonalLoop=1;jettySize=auto;html=1;" edge="1" parent="1" source="wnIjS79g1sQR4ne2AyyQ-11">
          <mxGeometry relative="1" as="geometry">
            <mxPoint x="840" y="920" as="targetPoint" />
          </mxGeometry>
        </mxCell>
        <mxCell id="wnIjS79g1sQR4ne2AyyQ-11" value="[Zeilenumbruch]" style="ellipse;whiteSpace=wrap;html=1;" parent="1" vertex="1">
          <mxGeometry x="780" y="840" width="120" height="40" as="geometry" />
        </mxCell>
        <mxCell id="r34noBHzzs_WBURP-22c-1" style="edgeStyle=orthogonalEdgeStyle;rounded=0;orthogonalLoop=1;jettySize=auto;html=1;" parent="1" source="r34noBHzzs_WBURP-22c-2" target="r34noBHzzs_WBURP-22c-6" edge="1">
          <mxGeometry relative="1" as="geometry" />
        </mxCell>
        <mxCell id="r34noBHzzs_WBURP-22c-2" value="Variablenname" style="rounded=0;whiteSpace=wrap;html=1;" parent="1" vertex="1">
          <mxGeometry x="420" y="840" width="100" height="40" as="geometry" />
        </mxCell>
        <mxCell id="2dUyCxh0dzYOMJSv52OM-3" style="edgeStyle=orthogonalEdgeStyle;rounded=0;orthogonalLoop=1;jettySize=auto;html=1;" parent="1" source="r34noBHzzs_WBURP-22c-6" target="Xy19DxBYmVt9RFk1YGQX-10" edge="1">
          <mxGeometry relative="1" as="geometry" />
        </mxCell>
        <mxCell id="r34noBHzzs_WBURP-22c-6" value="_" style="ellipse;whiteSpace=wrap;html=1;" parent="1" vertex="1">
          <mxGeometry x="560" y="840" width="40" height="40" as="geometry" />
        </mxCell>
        <mxCell id="Xy19DxBYmVt9RFk1YGQX-29" value="PostProcessingSequence: [Zeilenumbruch]" style="ellipse;whiteSpace=wrap;html=1;" parent="1" vertex="1">
          <mxGeometry x="120" y="1400" width="260" height="40" as="geometry" />
        </mxCell>
        <mxCell id="Xy19DxBYmVt9RFk1YGQX-21" value="TransformationAndCodeGenerationPreconfigurations:[Zeilenumbruch]" style="ellipse;whiteSpace=wrap;html=1;" parent="1" vertex="1">
          <mxGeometry x="120" y="960" width="400" height="60" as="geometry" />
        </mxCell>
      </root>
    </mxGraphModel>
  </diagram>
</mxfile>
